<?xml version="1.0" encoding="UTF-8"?>
<svg id="Layer_1" xmlns="http://www.w3.org/2000/svg" baseProfile="tiny" version="1.2" viewBox="0 0 50 34.7">
  <!-- Generator: Adobe Illustrator 30.2.1, SVG Export Plug-In . SVG Version: 2.1.1 Build 1)  -->
  <path d="M12.2,24.1c5.8,0,10.6-4.7,10.6-10.6,0-1.2-.9-2.1-2.1-2.1s-2.1.9-2.1,2.1c0,3.5-2.8,6.4-6.4,6.4s-6.4-2.8-6.4-6.4,2.8-6.4,6.4-6.4h17c-1.4,1.8-2.2,4.1-2.2,6.4,0,5.9,4.7,10.6,10.6,10.6s10.6-4.7,10.6-10.6-4.7-10.6-10.6-10.6H12.2C6.3,2.9,1.6,7.7,1.6,13.5s4.7,10.6,10.6,10.6ZM44,13.5c0,3.5-2.8,6.4-6.4,6.4s-6.4-2.8-6.4-6.4,2.8-6.4,6.4-6.4c3.5,0,6.4,2.8,6.4,6.4Z"/>
  <path d="M33.4,28.3h-17c-1.2,0-2.1.9-2.1,2.1s.9,2.1,2.1,2.1h17c1.2,0,2.1-.9,2.1-2.1s-.9-2.1-2.1-2.1Z"/>
  <circle cx="12.2" cy="13.5" r="2.8"/>
  <circle cx="37.6" cy="13.5" r="2.8"/>
</svg>